<svg xmlns="http://www.w3.org/2000/svg" width="300" height="53" viewBox="0 0 300 53">
  <defs>
    <style>
      .cls-1 {
        fill: #f5f5f5;
        stroke: #000;
        stroke-width: 0.394px;
        fill-rule: evenodd;
      }
    </style>
  </defs>
  <path id="HOME_INSPECTION" data-name="HOME INSPECTION" class="cls-1" d="M84.161,45.615H83.2v3.108H79.4V45.615h-0.96v6.97H79.4V49.414h3.8v3.172h0.96v-6.97Zm11.963,2.05a3.313,3.313,0,0,0-.709-1.129,3.182,3.182,0,0,0-1.1-.737,3.964,3.964,0,0,0-2.838,0,3.186,3.186,0,0,0-1.1.737,3.313,3.313,0,0,0-.709,1.129,4.239,4.239,0,0,0,0,2.875,3.285,3.285,0,0,0,.709,1.126,3.173,3.173,0,0,0,1.1.732,4,4,0,0,0,2.838,0,3.17,3.17,0,0,0,1.1-.732,3.285,3.285,0,0,0,.709-1.126A4.241,4.241,0,0,0,96.124,47.665Zm-0.906,2.588a2.434,2.434,0,0,1-.5.861,2.153,2.153,0,0,1-.788.54,2.933,2.933,0,0,1-2.063,0,2.176,2.176,0,0,1-.79-0.54,2.414,2.414,0,0,1-.5-0.861,3.831,3.831,0,0,1,0-2.3,2.411,2.411,0,0,1,.5-0.863,2.2,2.2,0,0,1,.79-0.542,2.9,2.9,0,0,1,2.063,0,2.18,2.18,0,0,1,.788.542,2.432,2.432,0,0,1,.5.863A3.829,3.829,0,0,1,95.218,50.253Zm9.871-.187-2.437-4.29a0.284,0.284,0,0,0-.133-0.136,0.622,0.622,0,0,0-.2-0.024h-0.7v6.97h0.837V47.463c0-.068,0-0.143-0.008-0.224s-0.012-.164-0.022-0.248l2.472,4.373a0.38,0.38,0,0,0,.344.219h0.138a0.38,0.38,0,0,0,.345-0.219l2.417-4.358q-0.011.122-.015,0.238c0,0.078-.005.151-0.005,0.219v5.122h0.837v-6.97h-0.7a0.622,0.622,0,0,0-.2.024,0.284,0.284,0,0,0-.133.136l-2.387,4.285q-0.069.126-.123,0.251c-0.037.083-.071,0.169-0.1,0.26-0.033-.087-0.066-0.174-0.1-0.26a1.746,1.746,0,0,0-.12-0.246h0Zm9.526-4.451v6.97h4.346V51.816h-3.387V49.438h2.743V48.7h-2.743V46.383h3.387V45.615h-4.346Zm16.629,0h-0.955v6.97h0.955v-6.97Zm6.321,0h-0.492v6.97h0.837V47.619c0-.065,0-0.136,0-0.214s-0.009-.157-0.015-0.238l4.081,5.248a0.473,0.473,0,0,0,.15.131,0.415,0.415,0,0,0,.19.039h0.482v-6.97h-0.837v4.937c0,0.075,0,.152.005,0.231s0.01,0.161.02,0.246L137.9,45.775a0.5,0.5,0,0,0-.14-0.129,0.44,0.44,0,0,0-.19-0.032h0ZM152.3,46.257a2.485,2.485,0,0,0-.851-0.535,3.022,3.022,0,0,0-1.078-.185,2.519,2.519,0,0,0-.933.16,2.044,2.044,0,0,0-.682.428,1.935,1.935,0,0,0-.421,2.1,1.573,1.573,0,0,0,.381.523,2.029,2.029,0,0,0,.54.34,6.16,6.16,0,0,0,.62.231l0.62,0.195a2.67,2.67,0,0,1,.539.231,1.2,1.2,0,0,1,.382.338,0.872,0.872,0,0,1,.145.518,1.32,1.32,0,0,1-.1.52,1.12,1.12,0,0,1-.283.4,1.288,1.288,0,0,1-.45.26,1.839,1.839,0,0,1-.606.092,1.919,1.919,0,0,1-.691-0.109,2.549,2.549,0,0,1-.483-0.241,4,4,0,0,1-.332-0.241,0.394,0.394,0,0,0-.236-0.109,0.229,0.229,0,0,0-.126.036,0.354,0.354,0,0,0-.1.09l-0.276.447a2.929,2.929,0,0,0,.963.664,3.094,3.094,0,0,0,1.248.246,2.768,2.768,0,0,0,1-.17,2.164,2.164,0,0,0,.743-0.467,1.974,1.974,0,0,0,.46-0.7,2.329,2.329,0,0,0,.158-0.858,1.663,1.663,0,0,0-.145-0.73,1.549,1.549,0,0,0-.384-0.5,2.2,2.2,0,0,0-.542-0.338c-0.2-.089-0.408-0.169-0.62-0.241l-0.62-.207a2.949,2.949,0,0,1-.542-0.236,1.248,1.248,0,0,1-.384-0.328,0.779,0.779,0,0,1-.145-0.484,1.074,1.074,0,0,1,.084-0.426,0.938,0.938,0,0,1,.248-0.343,1.209,1.209,0,0,1,.411-0.231,1.731,1.731,0,0,1,.566-0.085,1.779,1.779,0,0,1,.579.083,2.292,2.292,0,0,1,.408.182,3.04,3.04,0,0,1,.281.182,0.344,0.344,0,0,0,.194.083,0.206,0.206,0,0,0,.128-0.036,0.384,0.384,0,0,0,.094-0.109Zm7.493,3.721a3.58,3.58,0,0,0,1.127-.163,2.35,2.35,0,0,0,.825-0.455,1.912,1.912,0,0,0,.5-0.7,2.26,2.26,0,0,0,.172-0.89,2.365,2.365,0,0,0-.16-0.89,1.755,1.755,0,0,0-.485-0.681,2.25,2.25,0,0,0-.82-0.435,3.954,3.954,0,0,0-1.164-.153H157.71v6.97h0.95V49.978h1.132Zm-1.132-3.619h1.132a1.832,1.832,0,0,1,1.258.375,1.33,1.33,0,0,1,.416,1.041,1.558,1.558,0,0,1-.108.589,1.252,1.252,0,0,1-.32.46,1.487,1.487,0,0,1-.525.3,2.222,2.222,0,0,1-.721.107H158.66v-2.87Zm8.905-.744v6.97h4.347V51.816h-3.387V49.438h2.742V48.7h-2.742V46.383h3.387V45.615h-4.347Zm14.469,5.6a3.136,3.136,0,0,1-.372.285,1.965,1.965,0,0,1-.4.2,2.32,2.32,0,0,1-.465.114,3.962,3.962,0,0,1-.566.036,2.5,2.5,0,0,1-.965-0.185,2.173,2.173,0,0,1-.775-0.537,2.543,2.543,0,0,1-.517-0.863,3.312,3.312,0,0,1-.19-1.163,3.252,3.252,0,0,1,.19-1.143,2.487,2.487,0,0,1,.529-0.866,2.315,2.315,0,0,1,.81-0.547,2.713,2.713,0,0,1,1.036-.192,2.973,2.973,0,0,1,.556.046,2.647,2.647,0,0,1,.424.114,2.083,2.083,0,0,1,.315.146c0.088,0.052.166,0.1,0.231,0.146s0.122,0.084.17,0.114a0.252,0.252,0,0,0,.135.046,0.216,0.216,0,0,0,.128-0.032,0.328,0.328,0,0,0,.079-0.08l0.31-.433a3.231,3.231,0,0,0-2.343-.885,3.856,3.856,0,0,0-1.44.26,3.254,3.254,0,0,0-1.12.732,3.289,3.289,0,0,0-.726,1.129,3.917,3.917,0,0,0-.258,1.445,4.157,4.157,0,0,0,.241,1.445,3.293,3.293,0,0,0,.679,1.126,3.029,3.029,0,0,0,1.059.73,3.538,3.538,0,0,0,1.383.26,3.62,3.62,0,0,0,1.489-.277,3.015,3.015,0,0,0,1.051-.773l-0.374-.4a0.2,0.2,0,0,0-.143-0.063,0.252,0.252,0,0,0-.162.073h0Zm5.154-5.6v0.793h2.289v6.178h0.955V46.408h2.28V45.615h-5.524Zm11.6,0h-0.955v6.97h0.955v-6.97Zm12.131,2.05a3.325,3.325,0,0,0-.709-1.129,3.185,3.185,0,0,0-1.1-.737,3.964,3.964,0,0,0-2.838,0,3.2,3.2,0,0,0-1.1.737,3.307,3.307,0,0,0-.708,1.129,4.225,4.225,0,0,0,0,2.875,3.28,3.28,0,0,0,.708,1.126,3.188,3.188,0,0,0,1.1.732,4,4,0,0,0,2.838,0,3.172,3.172,0,0,0,1.1-.732,3.3,3.3,0,0,0,.709-1.126A4.241,4.241,0,0,0,210.917,47.665Zm-0.906,2.588a2.441,2.441,0,0,1-.5.861,2.162,2.162,0,0,1-.788.54,2.934,2.934,0,0,1-2.063,0,2.178,2.178,0,0,1-.79-0.54,2.432,2.432,0,0,1-.5-0.861,3.835,3.835,0,0,1,0-2.3,2.43,2.43,0,0,1,.5-0.863,2.2,2.2,0,0,1,.79-0.542,2.9,2.9,0,0,1,2.063,0,2.189,2.189,0,0,1,.788.542,2.439,2.439,0,0,1,.5.863A3.835,3.835,0,0,1,210.011,50.253Zm6.892-4.638H216.41v6.97h0.837V47.619c0-.065,0-0.136-0.005-0.214s-0.008-.157-0.014-0.238l4.081,5.248a0.473,0.473,0,0,0,.15.131,0.413,0.413,0,0,0,.189.039h0.483v-6.97h-0.837v4.937c0,0.075,0,.152,0,0.231s0.01,0.161.02,0.246l-4.086-5.253a0.5,0.5,0,0,0-.141-0.129,0.432,0.432,0,0,0-.189-0.032h0Z"/>
  <path id="CAMERON" class="cls-1" d="M23.063,24.569a1.448,1.448,0,0,0-.2.133,14.524,14.524,0,0,1-1.758,1.389,10.231,10.231,0,0,1-1.923,1,11.072,11.072,0,0,1-2.264.613,17.225,17.225,0,0,1-2.8.2,11.982,11.982,0,0,1-4.642-.889,10.665,10.665,0,0,1-3.711-2.554,11.792,11.792,0,0,1-2.46-4.076,15.747,15.747,0,0,1-.889-5.475,15.252,15.252,0,0,1,.9-5.383A11.829,11.829,0,0,1,5.829,5.447,10.989,10.989,0,0,1,9.675,2.853a12.881,12.881,0,0,1,4.9-.909,14.035,14.035,0,0,1,2.585.215,12.845,12.845,0,0,1,2.006.531,8.8,8.8,0,0,1,1.5.695q0.63,0.378,1.075.695t0.734,0.531a0.882,0.882,0,0,0,.476.214,0.58,0.58,0,0,0,.517-0.245l0.641-.919a16.672,16.672,0,0,0-1.985-1.512,11.687,11.687,0,0,0-2.161-1.093A13.522,13.522,0,0,0,17.491.381,16.748,16.748,0,0,0,14.575.146a15.306,15.306,0,0,0-5.82,1.073A13.1,13.1,0,0,0,4.227,4.242,13.647,13.647,0,0,0,1.291,8.91,16.617,16.617,0,0,0,.246,14.916,17.426,17.426,0,0,0,1.26,21a13.662,13.662,0,0,0,2.822,4.668,12.375,12.375,0,0,0,4.342,2.983A14.383,14.383,0,0,0,14,29.707a17.51,17.51,0,0,0,3.339-.3,13.88,13.88,0,0,0,2.791-.838,12.393,12.393,0,0,0,2.347-1.308,13.614,13.614,0,0,0,1.985-1.726l-0.827-.878a0.483,0.483,0,0,0-.351-0.143A0.446,0.446,0,0,0,23.063,24.569Zm34.643-24.1H55.6L43.625,29.38h1.613a0.774,0.774,0,0,0,.5-0.163,0.878,0.878,0,0,0,.289-0.388l3.432-8.4h14.37l3.453,8.4a1.015,1.015,0,0,0,.29.4,0.723,0.723,0,0,0,.475.153h1.633Zm-1.633,3.82q0.144-.368.289-0.807t0.289-.93q0.144,0.49.289,0.93t0.29,0.787L63.205,18.88H50.1Zm48.837,16.671L93.1,0.861A0.73,0.73,0,0,0,92.762.534,1.449,1.449,0,0,0,92.3.472H90.849V29.38h1.84V4.742A11.01,11.01,0,0,0,92.627,3.6l11.827,20.225a0.932,0.932,0,0,0,.827.531h0.331a0.9,0.9,0,0,0,.827-0.531l11.517-20.2a10.64,10.64,0,0,0-.062,1.124V29.38h1.861V0.472h-1.468a1.347,1.347,0,0,0-.455.061,0.742,0.742,0,0,0-.331.327l-11.5,20.082a5.278,5.278,0,0,0-.3.6q-0.135.317-.258,0.643a8.285,8.285,0,0,0-.538-1.226h0Zm40.07-20.491V29.38h17.534V27.644h-15.4V15.59h12.819v-1.7H147.109V2.209h15.4V0.472H144.979Zm47.535,15.833a3.189,3.189,0,0,1,1.251.184,2.076,2.076,0,0,1,.754.633l9.367,11.727a1.471,1.471,0,0,0,.465.409,1.225,1.225,0,0,0,.569.123h1.84l-10.07-12.5a3.336,3.336,0,0,0-.889-0.817,11.743,11.743,0,0,0,3.453-.868,8.889,8.889,0,0,0,2.616-1.7,7.1,7.1,0,0,0,1.664-2.4,7.684,7.684,0,0,0,.579-3.024,6.722,6.722,0,0,0-2.5-5.669q-2.5-1.931-7.567-1.931H186.58V29.38h2.109V16.305h3.825ZM188.689,2.127h5.355A10.034,10.034,0,0,1,200,3.619a5.288,5.288,0,0,1,2.047,4.576,6.393,6.393,0,0,1-.559,2.717,5.694,5.694,0,0,1-1.623,2.063,7.531,7.531,0,0,1-2.605,1.318,12.182,12.182,0,0,1-3.484.46h-5.086V2.127Zm64.1,6.732a13.553,13.553,0,0,0-2.853-4.668,12.566,12.566,0,0,0-4.4-2.993A14.85,14.85,0,0,0,239.842.146,14.611,14.611,0,0,0,234.2,1.208a12.748,12.748,0,0,0-4.4,2.993,13.57,13.57,0,0,0-2.864,4.658,17.132,17.132,0,0,0-1.023,6.057,17.193,17.193,0,0,0,1.023,6.078,13.57,13.57,0,0,0,2.864,4.658,12.626,12.626,0,0,0,4.4,2.983,15.779,15.779,0,0,0,11.331,0,12.626,12.626,0,0,0,4.4-2.983,13.441,13.441,0,0,0,2.853-4.658,17.353,17.353,0,0,0,1.013-6.078A17.292,17.292,0,0,0,252.785,8.859Zm-2.026,11.5a11.7,11.7,0,0,1-2.388,4.076,10.13,10.13,0,0,1-3.712,2.554,12.73,12.73,0,0,1-4.817.878,12.538,12.538,0,0,1-4.766-.878,10.345,10.345,0,0,1-3.722-2.554,11.627,11.627,0,0,1-2.419-4.076,16.111,16.111,0,0,1-.858-5.445,16.137,16.137,0,0,1,.858-5.434A11.619,11.619,0,0,1,231.354,5.4a10.462,10.462,0,0,1,3.722-2.564,12.412,12.412,0,0,1,4.766-.889,12.6,12.6,0,0,1,4.817.889A10.243,10.243,0,0,1,248.371,5.4a11.7,11.7,0,0,1,2.388,4.086,16.319,16.319,0,0,1,.848,5.434A16.293,16.293,0,0,1,250.759,20.361Zm27.5-19.888h-1.034V29.38h1.84V5.049q0-.552-0.062-1.164l19.022,25.087a0.9,0.9,0,0,0,.765.409H299.8V0.472h-1.861v24.25A11.591,11.591,0,0,0,298,25.907L279.064,0.861a0.964,0.964,0,0,0-.352-0.317,1.173,1.173,0,0,0-.454-0.072h0Z"/>
</svg>
